<?xml version="1.0" encoding="UTF-8"?>
<!DOCTYPE svg PUBLIC "-//W3C//DTD SVG 1.1//EN" "http://www.w3.org/Graphics/SVG/1.1/DTD/svg11.dtd">
<!-- Creator: CorelDRAW -->
<svg xmlns="http://www.w3.org/2000/svg" xml:space="preserve" width="800px" height="800px" version="1.1" style="shape-rendering:geometricPrecision; text-rendering:geometricPrecision; image-rendering:optimizeQuality; fill-rule:evenodd; clip-rule:evenodd"
viewBox="0 0 800 800"
 xmlns:xlink="http://www.w3.org/1999/xlink">
 <defs>
  <style type="text/css">
   <![CDATA[
    .fil0 {fill:black}
    .fil1 {fill:url(#id0)}
    .fil2 {fill:url(#id1)}
   ]]>
  </style>
  <linearGradient id="id0" gradientUnits="userSpaceOnUse" x1="21.5303" y1="400" x2="778.47" y2="400">
   <stop offset="0" style="stop-opacity:1; stop-color:#8BC53F"/>
   <stop offset="0.490196" style="stop-opacity:1; stop-color:#BB775D"/>
   <stop offset="0.0117647" style="stop-opacity:1; stop-color:#87C445"/>
   <stop offset="0.0196078" style="stop-opacity:1; stop-color:#83C34C"/>
   <stop offset="0.0313725" style="stop-opacity:1; stop-color:#7FC252"/>
   <stop offset="0.0392157" style="stop-opacity:1; stop-color:#7BC158"/>
   <stop offset="0.0509804" style="stop-opacity:1; stop-color:#77C05F"/>
   <stop offset="0.0588235" style="stop-opacity:1; stop-color:#73BE65"/>
   <stop offset="0.0705882" style="stop-opacity:1; stop-color:#6FBD6B"/>
   <stop offset="0.0784314" style="stop-opacity:1; stop-color:#6BBC72"/>
   <stop offset="0.0901961" style="stop-opacity:1; stop-color:#67BB78"/>
   <stop offset="0.101961" style="stop-opacity:1; stop-color:#63BA7E"/>
   <stop offset="0.109804" style="stop-opacity:1; stop-color:#5FB985"/>
   <stop offset="0.121569" style="stop-opacity:1; stop-color:#5BB88B"/>
   <stop offset="0.129412" style="stop-opacity:1; stop-color:#58B791"/>
   <stop offset="0.141176" style="stop-opacity:1; stop-color:#54B697"/>
   <stop offset="0.14902" style="stop-opacity:1; stop-color:#50B59D"/>
   <stop offset="0.160784" style="stop-opacity:1; stop-color:#4CB4A3"/>
   <stop offset="0.168627" style="stop-opacity:1; stop-color:#48B3A9"/>
   <stop offset="0.180392" style="stop-opacity:1; stop-color:#44B1AF"/>
   <stop offset="0.188235" style="stop-opacity:1; stop-color:#41B0B6"/>
   <stop offset="0.2" style="stop-opacity:1; stop-color:#3DAFBC"/>
   <stop offset="0.211765" style="stop-opacity:1; stop-color:#39AEC2"/>
   <stop offset="0.219608" style="stop-opacity:1; stop-color:#35ADC8"/>
   <stop offset="0.231373" style="stop-opacity:1; stop-color:#31ACCE"/>
   <stop offset="0.239216" style="stop-opacity:1; stop-color:#2EABD4"/>
   <stop offset="0.25098" style="stop-opacity:1; stop-color:#2AAADA"/>
   <stop offset="0.258824" style="stop-opacity:1; stop-color:#26A9E0"/>
   <stop offset="0.270588" style="stop-opacity:1; stop-color:#2BABDC"/>
   <stop offset="0.278431" style="stop-opacity:1; stop-color:#30ACD7"/>
   <stop offset="0.290196" style="stop-opacity:1; stop-color:#35AED3"/>
   <stop offset="0.301961" style="stop-opacity:1; stop-color:#3BB0CF"/>
   <stop offset="0.309804" style="stop-opacity:1; stop-color:#40B1CB"/>
   <stop offset="0.321569" style="stop-opacity:1; stop-color:#45B3C6"/>
   <stop offset="0.329412" style="stop-opacity:1; stop-color:#4AB4C2"/>
   <stop offset="0.341176" style="stop-opacity:1; stop-color:#4FB6BE"/>
   <stop offset="0.34902" style="stop-opacity:1; stop-color:#54B8BA"/>
   <stop offset="0.360784" style="stop-opacity:1; stop-color:#59B9B5"/>
   <stop offset="0.368627" style="stop-opacity:1; stop-color:#5EBBB1"/>
   <stop offset="0.380392" style="stop-opacity:1; stop-color:#64BDAD"/>
   <stop offset="0.388235" style="stop-opacity:1; stop-color:#69BEA9"/>
   <stop offset="0.4" style="stop-opacity:1; stop-color:#6EC0A4"/>
   <stop offset="0.411765" style="stop-opacity:1; stop-color:#73C1A0"/>
   <stop offset="0.419608" style="stop-opacity:1; stop-color:#78C39C"/>
   <stop offset="0.431373" style="stop-opacity:1; stop-color:#7DC598"/>
   <stop offset="0.439216" style="stop-opacity:1; stop-color:#82C693"/>
   <stop offset="0.45098" style="stop-opacity:1; stop-color:#87C88F"/>
   <stop offset="0.458824" style="stop-opacity:1; stop-color:#8DCA8B"/>
   <stop offset="0.470588" style="stop-opacity:1; stop-color:#92CB87"/>
   <stop offset="0.478431" style="stop-opacity:1; stop-color:#96CD83"/>
   <stop offset="0.490196" style="stop-opacity:1; stop-color:#9BCE7F"/>
   <stop offset="0.501961" style="stop-opacity:1; stop-color:#A0D07B"/>
   <stop offset="0.509804" style="stop-opacity:1; stop-color:#A5D176"/>
   <stop offset="0.521569" style="stop-opacity:1; stop-color:#AAD372"/>
   <stop offset="0.529412" style="stop-opacity:1; stop-color:#AFD56E"/>
   <stop offset="0.541176" style="stop-opacity:1; stop-color:#B4D66A"/>
   <stop offset="0.54902" style="stop-opacity:1; stop-color:#B9D866"/>
   <stop offset="0.560784" style="stop-opacity:1; stop-color:#BED962"/>
   <stop offset="0.568627" style="stop-opacity:1; stop-color:#C3DB5E"/>
   <stop offset="0.580392" style="stop-opacity:1; stop-color:#C8DC5A"/>
   <stop offset="0.588235" style="stop-opacity:1; stop-color:#CDDE56"/>
   <stop offset="0.6" style="stop-opacity:1; stop-color:#D2DF52"/>
   <stop offset="0.611765" style="stop-opacity:1; stop-color:#D7E14E"/>
   <stop offset="0.619608" style="stop-opacity:1; stop-color:#DBE34A"/>
   <stop offset="0.631373" style="stop-opacity:1; stop-color:#E0E445"/>
   <stop offset="0.639216" style="stop-opacity:1; stop-color:#E5E641"/>
   <stop offset="0.65098" style="stop-opacity:1; stop-color:#EAE73D"/>
   <stop offset="0.658824" style="stop-opacity:1; stop-color:#EFE939"/>
   <stop offset="0.670588" style="stop-opacity:1; stop-color:#F4EA35"/>
   <stop offset="0.678431" style="stop-opacity:1; stop-color:#F9EC31"/>
   <stop offset="0.690196" style="stop-opacity:1; stop-color:#F9E633"/>
   <stop offset="0.701961" style="stop-opacity:1; stop-color:#F8E036"/>
   <stop offset="0.709804" style="stop-opacity:1; stop-color:#F8D938"/>
   <stop offset="0.721569" style="stop-opacity:1; stop-color:#F7D33A"/>
   <stop offset="0.729412" style="stop-opacity:1; stop-color:#F7CD3D"/>
   <stop offset="0.741176" style="stop-opacity:1; stop-color:#F7C73F"/>
   <stop offset="0.74902" style="stop-opacity:1; stop-color:#F6C042"/>
   <stop offset="0.760784" style="stop-opacity:1; stop-color:#F6BA44"/>
   <stop offset="0.768627" style="stop-opacity:1; stop-color:#F5B446"/>
   <stop offset="0.780392" style="stop-opacity:1; stop-color:#F5AE49"/>
   <stop offset="0.788235" style="stop-opacity:1; stop-color:#F4A84B"/>
   <stop offset="0.8" style="stop-opacity:1; stop-color:#F4A14D"/>
   <stop offset="0.811765" style="stop-opacity:1; stop-color:#F49B50"/>
   <stop offset="0.819608" style="stop-opacity:1; stop-color:#F39552"/>
   <stop offset="0.831373" style="stop-opacity:1; stop-color:#F38F54"/>
   <stop offset="0.839216" style="stop-opacity:1; stop-color:#F28957"/>
   <stop offset="0.85098" style="stop-opacity:1; stop-color:#F28359"/>
   <stop offset="0.858824" style="stop-opacity:1; stop-color:#F27D5B"/>
   <stop offset="0.870588" style="stop-opacity:1; stop-color:#F1775E"/>
   <stop offset="0.878431" style="stop-opacity:1; stop-color:#F17160"/>
   <stop offset="0.890196" style="stop-opacity:1; stop-color:#F06B62"/>
   <stop offset="0.901961" style="stop-opacity:1; stop-color:#F06564"/>
   <stop offset="0.909804" style="stop-opacity:1; stop-color:#F05F67"/>
   <stop offset="0.921569" style="stop-opacity:1; stop-color:#EF5969"/>
   <stop offset="0.929412" style="stop-opacity:1; stop-color:#EF536B"/>
   <stop offset="0.941176" style="stop-opacity:1; stop-color:#EE4D6D"/>
   <stop offset="0.94902" style="stop-opacity:1; stop-color:#EE4770"/>
   <stop offset="0.960784" style="stop-opacity:1; stop-color:#EE4172"/>
   <stop offset="0.968627" style="stop-opacity:1; stop-color:#ED3B74"/>
   <stop offset="0.980392" style="stop-opacity:1; stop-color:#ED3576"/>
   <stop offset="0.988235" style="stop-opacity:1; stop-color:#EC2F79"/>
   <stop offset="1" style="stop-opacity:1; stop-color:#EC297B"/>
  </linearGradient>
  <linearGradient id="id1" gradientUnits="userSpaceOnUse" xlink:href="#id0" x1="144" y1="400" x2="656" y2="400">
  </linearGradient>
 </defs>
 <g id="_435014184">
  <circle class="fil0" cx="400" cy="400" r="400"/>
  <path class="fil1" d="M400 22c105,0 199,42 268,110 68,69 110,164 110,268 0,105 -42,199 -110,268 -69,68 -163,110 -268,110 -104,0 -199,-42 -268,-110 -68,-69 -110,-163 -110,-268 0,-104 42,-199 110,-268 69,-68 164,-110 268,-110l0 0zm260 118c-67,-66 -159,-107 -260,-107 -101,0 -193,41 -260,107 -66,67 -107,159 -107,260 0,101 41,193 107,260 67,66 159,107 260,107 101,0 193,-41 260,-107 66,-67 107,-159 107,-260 0,-101 -41,-193 -107,-260l0 0z"/>
 </g>
 <g id="Layer_x0020_1">
  <metadata id="CorelCorpID_0Corel-Layer"/>
  <path class="fil2" d="M391 432l-3 -8c0,-2 -1,-4 -2,-6l133 -7c2,0 4,-2 4,-5 0,-2 -2,-4 -5,-4l-154 9 -9 -35 42 -2 -3 -12 35 -22 0 0c3,0 4,-3 3,-5 0,-2 -2,-3 -4,-3l-37 23 0 0 -4 1 -43 11 15 56 11 -3c4,-1 9,1 10,6l10 36c6,28 -25,-1 -50,0 -5,1 -9,-1 -10,-6l-5 -16c-1,-4 2,-9 6,-10l11 -3 -14 -55 0 0c-5,1 -10,-2 -11,-6l-6 -22c-1,-4 2,-8 6,-10l117 -40c0,0 0,0 1,0 19,-5 41,7 46,26l13 48 87 -5c3,0 6,1 8,4 1,2 1,6 0,8l-10 21c-1,2 -1,3 -2,5 -5,11 -10,21 -16,31l-170 0zm-239 9l165 0c0,0 0,1 0,2l4 15c0,2 1,3 2,4 -1,0 -2,1 -3,1 -6,2 -13,5 -19,5 -6,0 -12,-3 -18,-5 -6,-3 -14,-6 -21,-6 -7,0 -15,3 -21,6 -6,2 -12,5 -18,5 -6,0 -13,-3 -19,-5 -6,-3 -13,-6 -21,-6 -2,0 -4,2 -4,5 0,2 2,4 4,4 6,0 13,3 18,5 7,3 14,6 22,6 7,0 14,-3 21,-6 5,-2 12,-5 18,-5 6,0 13,3 18,5 7,3 14,6 21,6 8,0 15,-3 22,-6 2,-1 4,-2 6,-3 3,3 8,3 12,3 4,0 9,1 14,2 6,2 13,5 19,7 7,2 15,5 21,0 3,-2 4,-5 4,-8 1,0 2,-1 3,-1 5,-2 12,-5 18,-5 6,0 12,3 18,5 7,3 14,6 21,6 8,0 15,-3 21,-6 6,-2 13,-5 19,-5 6,0 12,3 18,5 6,3 14,6 21,6 7,0 15,-3 21,-6 6,-2 12,-5 18,-5 6,0 13,3 19,5 6,3 13,6 21,6 2,0 4,-2 4,-5 0,-2 -2,-4 -4,-4 -6,0 -13,-3 -18,-5 -7,-3 -14,-6 -22,-6 -7,0 -14,3 -21,6 -5,2 -12,5 -18,5 -6,0 -13,-3 -18,-5 -7,-3 -14,-6 -21,-6 -8,0 -15,3 -22,6 -5,2 -12,5 -18,5 -6,0 -12,-3 -18,-5 -7,-3 -14,-6 -21,-6 -8,0 -14,3 -21,6 0,-1 0,-2 -1,-3l-5 -19 255 0c4,0 8,3 8,8l0 130c0,5 -4,8 -8,8l-496 0c-4,0 -8,-3 -8,-8l0 -130c0,-5 4,-8 8,-8zm447 130c3,0 5,-2 5,-5 0,-2 -2,-4 -5,-4 -5,0 -11,-3 -16,-5 -6,-3 -13,-6 -20,-6 -7,0 -13,3 -20,6 -5,2 -11,5 -16,5 -5,0 -12,-3 -16,-5 -7,-3 -13,-6 -20,-6 -7,0 -14,3 -20,6 -5,2 -11,5 -17,5 -5,0 -11,-3 -16,-5 -6,-3 -13,-6 -20,-6 -7,0 -14,3 -20,6 -5,2 -11,5 -16,5 -6,0 -12,-3 -17,-5 -6,-3 -12,-6 -19,-6 -7,0 -14,3 -20,6 -5,2 -11,5 -17,5 -5,0 -11,-3 -16,-5 -6,-3 -13,-6 -20,-6 -7,0 -14,3 -20,6 -5,2 -11,5 -16,5 -6,0 -12,-3 -17,-5 -6,-3 -13,-6 -19,-6 -3,0 -5,2 -5,5 0,2 2,4 5,4 5,0 11,3 16,5 6,3 13,6 20,6 7,0 13,-3 20,-6 5,-2 11,-5 16,-5 5,0 12,3 16,5 7,3 13,6 20,6 7,0 14,-3 20,-6 5,-2 11,-5 17,-5 5,0 11,3 16,5 6,3 13,6 20,6 7,0 14,-3 20,-6 5,-2 11,-5 16,-5 6,0 12,3 17,5 6,3 12,6 19,6 7,0 14,-3 20,-6 5,-2 11,-5 17,-5 5,0 11,3 16,5 6,3 13,6 20,6 7,0 14,-3 20,-6 5,-2 11,-5 16,-5 6,0 12,3 17,5 6,3 13,6 19,6zm42 -49c2,0 4,-2 4,-4 0,-3 -2,-5 -4,-5 -7,0 -15,-3 -21,-5 -7,-3 -15,-6 -23,-6 -8,0 -16,3 -24,6 -6,2 -13,5 -20,5 -7,0 -14,-3 -20,-5 -8,-3 -16,-6 -24,-6 -8,0 -16,3 -23,6 -6,2 -14,5 -20,5 -7,0 -14,-3 -21,-5 -7,-3 -15,-6 -23,-6 -8,0 -16,3 -23,6 -7,2 -14,5 -21,5 -7,0 -14,-3 -20,-5 -8,-3 -15,-6 -24,-6 -8,0 -15,3 -23,6 -6,2 -14,5 -20,5 -7,0 -14,-3 -21,-5 -7,-3 -15,-6 -23,-6 -8,0 -16,3 -23,6 -7,2 -14,5 -21,5 -7,0 -14,-3 -20,-5 -8,-3 -15,-6 -24,-6 -2,0 -4,2 -4,5 0,2 2,4 4,4 7,0 15,3 21,5 7,3 15,6 23,6 8,0 16,-3 24,-6 6,-2 13,-5 20,-5 7,0 14,3 20,5 8,3 16,6 24,6 8,0 16,-3 23,-6 6,-2 14,-5 20,-5 7,0 14,3 21,5 7,3 15,6 23,6 8,0 16,-3 23,-6 7,-2 14,-5 21,-5 7,0 14,3 20,5 8,3 15,6 24,6 8,0 15,-3 23,-6 6,-2 14,-5 20,-5 7,0 14,3 21,5 7,3 15,6 23,6 8,0 16,-3 23,-6 7,-2 14,-5 21,-5 7,0 14,3 20,5 8,3 15,6 24,6zm-246 -229c-22,0 -40,-18 -40,-40 0,-22 18,-40 40,-40 23,0 41,18 41,40 0,22 -18,40 -41,40zm-175 139c-7,-12 -10,-26 -10,-40 0,-4 4,-8 8,-8l103 -6 9 35 -57 3c-3,0 -4,2 -4,5 0,2 2,4 4,4 0,0 0,0 0,0l58 -3 -2 0c-5,1 -9,5 -11,10l-98 0z"/>
 </g>
</svg>
